<?xml version="1.0" encoding="UTF-8"?>
<svg width="32px" height="32px" viewBox="0 0 32 32" version="1.1" xmlns="http://www.w3.org/2000/svg" xmlns:xlink="http://www.w3.org/1999/xlink">
    <!-- Generator: Sketch 44.1 (41455) - http://www.bohemiancoding.com/sketch -->
    <title>Shape</title>
    <desc>Created with Sketch.</desc>
    <defs></defs>
    <g id="Page-1" stroke="none" stroke-width="1" fill="none" fill-rule="evenodd">
        <path d="M32,15.997 C32,18.097 30.375,19.799 28.317,19.964 C28.095,20.65 27.827,21.306 27.501,21.936 C28.822,23.508 28.792,25.832 27.313,27.31 C25.834,28.788 23.51,28.819 21.939,27.498 C21.308,27.824 20.653,28.093 19.967,28.314 C19.802,30.372 18.099,31.996 15.999,31.996 C13.898,31.996 12.195,30.372 12.03,28.314 C11.344,28.093 10.689,27.824 10.058,27.498 C8.487,28.818 6.162,28.788 4.684,27.31 C3.206,25.832 3.175,23.508 4.496,21.936 C4.17,21.306 3.9,20.65 3.68,19.964 C1.622,19.799 -0.002,18.097 -0.002,15.997 C-0.002,13.896 1.622,12.193 3.68,12.029 C3.901,11.343 4.17,10.688 4.496,10.057 C3.176,8.485 3.205,6.161 4.684,4.683 C6.163,3.205 8.487,3.175 10.058,4.495 C10.689,4.168 11.344,3.9 12.03,3.678 C12.195,1.619 13.898,-0.004 15.999,-0.004 C18.099,-0.004 19.802,1.619 19.967,3.678 C20.653,3.9 21.309,4.168 21.939,4.495 C23.51,3.175 25.835,3.204 27.313,4.683 C28.791,6.162 28.822,8.485 27.501,10.057 C27.827,10.687 28.096,11.343 28.317,12.029 C30.375,12.193 32,13.896 32,15.997 L32,15.997 Z M26.815,13.997 C26.529,12.449 25.902,11.028 25.041,9.783 L25.899,8.926 C26.679,8.145 26.679,6.879 25.899,6.098 C25.118,5.317 23.851,5.317 23.07,6.098 L22.207,6.961 C20.961,6.106 19.544,5.483 18,5.198 L18,3.997 C18,2.892 17.104,1.997 16,1.997 C14.896,1.997 14,2.892 14,3.997 L14,5.198 C12.456,5.483 11.037,6.106 9.791,6.961 L8.928,6.098 C8.148,5.317 6.881,5.317 6.1,6.098 C5.319,6.879 5.319,8.145 6.1,8.926 L6.957,9.783 C6.096,11.028 5.469,12.449 5.184,13.997 L4,13.997 C2.896,13.997 2,14.893 2,15.997 C2,17.101 2.896,17.997 4,17.997 L5.184,17.997 C5.469,19.544 6.096,20.965 6.957,22.211 L6.1,23.068 C5.319,23.85 5.319,25.114 6.1,25.895 C6.881,26.676 8.148,26.676 8.928,25.895 L9.791,25.033 C11.037,25.887 12.455,26.511 14,26.795 L14,27.996 C14,29.101 14.896,29.997 16,29.997 C17.104,29.997 18,29.101 18,27.996 L18,26.795 C19.544,26.511 20.962,25.888 22.207,25.033 L23.07,25.895 C23.851,26.676 25.118,26.676 25.899,25.895 C26.679,25.114 26.679,23.85 25.899,23.068 L25.041,22.211 C25.902,20.965 26.529,19.544 26.815,17.997 L28,17.997 C29.104,17.997 30,17.101 30,15.997 C30,14.893 29.104,13.997 28,13.997 L26.815,13.997 L26.815,13.997 Z M16,21.997 C12.686,21.997 10,19.31 10,15.997 C10,12.684 12.686,9.997 16,9.997 C19.313,9.997 22,12.684 22,15.997 C22,19.31 19.313,21.997 16,21.997 L16,21.997 Z M16,11.998 C13.79,11.998 12,13.789 12,15.998 C12,18.207 13.79,19.997 16,19.997 C18.209,19.997 20,18.208 20,15.998 C20,13.788 18.209,11.998 16,11.998 L16,11.998 Z" id="Shape" fill="#000000"></path>
    </g>
</svg>