<?xml version="1.0" encoding="UTF-8"?>
<svg width="82px" height="100px" viewBox="0 0 82 100" version="1.1" xmlns="http://www.w3.org/2000/svg" xmlns:xlink="http://www.w3.org/1999/xlink">
    <!-- Generator: Sketch 44.1 (41455) - http://www.bohemiancoding.com/sketch -->
    <title>Group 5</title>
    <desc>Created with Sketch.</desc>
    <defs></defs>
    <g id="Page-1" stroke="none" stroke-width="1" fill="none" fill-rule="evenodd">
        <g id="Group-5">
            <g id="Group-4">
                <g id="Group-2">
                    <g id="Group">
                        <g id="sortasc" transform="translate(0.000000, 4.843137)" fill-rule="nonzero" fill="#FFFFFF">
                            <path d="M48.4,63.0236078 L38.38625,63.0236078 L38.38625,1.92156863 C38.38625,0.859901961 37.26625,0 35.88625,0 L15.72375,0 C14.34375,0 13.22375,0.859901961 13.22375,1.92156863 L13.22375,63.0236078 L3.21,63.0236078 C2.2475,63.0236078 1.37,63.4492353 0.955,64.1160196 C0.54,64.7837647 0.66,65.5735294 1.2625,66.15 L23.8575,92.0479412 C24.3325,92.5023922 25.04875,92.7646863 25.805,92.7646863 C26.56125,92.7646863 27.2775,92.5023922 27.7525,92.0479412 L50.3475,66.15 C50.95,65.5735294 51.07,64.7837647 50.655,64.1160196 C50.24,63.4492353 49.3625,63.0236078 48.4,63.0236078 Z" id="Shape"></path>
                        </g>
                        <g id="ico" transform="translate(51.250000, 34.533060)">
                            <path d="M15,1.5 C7.54422607,1.5 1.5,7.54387816 1.5,15 C1.5,22.4561218 7.54422607,28.5 15,28.5 C22.4561734,28.5 28.5,22.4563474 28.5,15 C28.5,7.54365265 22.4561734,1.5 15,1.5 Z" id="Path" stroke="#FFFFFF" stroke-width="3"></path>
                            <rect id="Rectangle-81" fill="#FFFFFF" x="13.5" y="5.25" width="2.25" height="12" rx="1.125"></rect>
                            <rect id="Rectangle-82" fill="#FFFFFF" x="13.5" y="15" width="9" height="2.25" rx="1.125"></rect>
                        </g>
                        <g id="ico" transform="translate(51.250000, 0.111144)" stroke="#FFFFFF" stroke-width="3">
                            <path d="M15,1.5 C7.54422607,1.5 1.5,7.54387816 1.5,15 C1.5,22.4561218 7.54422607,28.5 15,28.5 C22.4561734,28.5 28.5,22.4563474 28.5,15 C28.5,7.54365265 22.4561734,1.5 15,1.5 Z" id="Path"></path>
                        </g>
                        <g id="Group-3" transform="translate(51.250000, 68.954977)">
                            <g id="ico" transform="translate(0.000000, 0.149938)" stroke="#FFFFFF" stroke-width="3">
                                <path d="M15,1.5 C7.54422607,1.5 1.5,7.54387816 1.5,15 C1.5,22.4561218 7.54422607,28.5 15,28.5 C22.4561734,28.5 28.5,22.4563474 28.5,15 C28.5,7.54365265 22.4561734,1.5 15,1.5 Z" id="Path"></path>
                            </g>
                            <circle id="Oval" fill="#FFFFFF" cx="7.6971014" cy="14.5600684" r="2"></circle>
                            <circle id="Oval" fill="#FFFFFF" cx="15.1490525" cy="14.5600684" r="2"></circle>
                            <circle id="Oval" fill="#FFFFFF" cx="23.0913601" cy="14.5600684" r="2"></circle>
                        </g>
                    </g>
                </g>
            </g>
            <path d="M64.0104781,19.9020967 C63.8210809,20.0914939 63.514228,20.0914939 63.3253202,19.9020967 C63.3174898,19.8908405 58.4636359,15.0404124 58.4636359,15.0404124 C58.2722811,14.8490576 58.2722811,14.5392683 58.4636359,14.3484029 C58.6549907,14.1565587 58.9642905,14.1565587 59.1556453,14.3484029 L63.6747507,18.8670189 L73.1196516,9.42211803 C73.3090488,9.23272083 73.6163911,9.23272083 73.8052989,9.42211803 C73.9946961,9.61102584 73.9946961,9.91836807 73.8052989,10.1077653 L64.0104781,19.9020967 Z" id="Shape" stroke="#FFFFFF" fill="#FFFFFF"></path>
        </g>
    </g>
</svg>